HIERARCHY
ROOT Hips
{
  OFFSET 91.165 99.3414 -47.619
  CHANNELS 6 Xposition Yposition Zposition Zrotation Xrotation Yrotation
  JOINT LHipJoint
  {
    OFFSET 0 0 0
    CHANNELS 6 Xposition Yposition Zposition Zrotation Xrotation Yrotation
    JOINT LeftUpLeg
    {
      OFFSET 9.46628 -9.93132 3.97552
      CHANNELS 6 Xposition Yposition Zposition Zrotation Xrotation Yrotation
      JOINT LeftLeg
      {
        OFFSET 13.8252 -37.9844 0
        CHANNELS 6 Xposition Yposition Zposition Zrotation Xrotation Yrotation
        JOINT LeftFoot
        {
          OFFSET 14.7484 -40.5208 0
          CHANNELS 6 Xposition Yposition Zposition Zrotation Xrotation Yrotation
          JOINT LeftToeBase
          {
            OFFSET 1.00532 -2.7609 10.3019
            CHANNELS 6 Xposition Yposition Zposition Zrotation Xrotation Yrotation
            End Site
            {
              OFFSET -0.00632173 -0.0164816 5.39401
            }
          }
        }
      }
    }
  }
  JOINT RHipJoint
  {
    OFFSET 0 0 0
    CHANNELS 6 Xposition Yposition Zposition Zrotation Xrotation Yrotation
    JOINT RightUpLeg
    {
      OFFSET -9.13636 -9.93127 3.97552
      CHANNELS 6 Xposition Yposition Zposition Zrotation Xrotation Yrotation
      JOINT RightLeg
      {
        OFFSET -13.3345 -36.6362 0
        CHANNELS 6 Xposition Yposition Zposition Zrotation Xrotation Yrotation
        JOINT RightFoot
        {
          OFFSET -14.9202 -40.993 0
          CHANNELS 6 Xposition Yposition Zposition Zrotation Xrotation Yrotation
          JOINT RightToeBase
          {
            OFFSET -1.02553 -2.81853 10.7352
            CHANNELS 6 Xposition Yposition Zposition Zrotation Xrotation Yrotation
            End Site
            {
              OFFSET 0.00220132 0.0129257 5.60286
            }
          }
        }
      }
    }
  }
  JOINT LowerBack
  {
    OFFSET 0 0 0
    CHANNELS 6 Xposition Yposition Zposition Zrotation Xrotation Yrotation
    JOINT Spine
    {
      OFFSET -0.108711 12.3982 -0.711138
      CHANNELS 6 Xposition Yposition Zposition Zrotation Xrotation Yrotation
      JOINT Spine1
      {
        OFFSET 0.0938664 12.4477 -0.00445908
        CHANNELS 6 Xposition Yposition Zposition Zrotation Xrotation Yrotation
        JOINT Neck
        {
          OFFSET 0 0 0
          CHANNELS 6 Xposition Yposition Zposition Zrotation Xrotation Yrotation
          JOINT Neck1
          {
            OFFSET 0.598532 9.88752 0.802972
            CHANNELS 6 Xposition Yposition Zposition Zrotation Xrotation Yrotation
            JOINT Head
            {
              OFFSET -0.558683 9.51172 -2.73268
              CHANNELS 6 Xposition Yposition Zposition Zrotation Xrotation Yrotation
              End Site
              {
                OFFSET -0.163462 10.0649 -1.03942
              }
            }
          }
        }
        JOINT LeftShoulder
        {
          OFFSET 0 0 0
          CHANNELS 6 Xposition Yposition Zposition Zrotation Xrotation Yrotation
          JOINT LeftArm
          {
            OFFSET 18.6635 6.60163 -1.74226
            CHANNELS 6 Xposition Yposition Zposition Zrotation Xrotation Yrotation
            JOINT LeftForeArm
            {
              OFFSET 30.2139 0 0
              CHANNELS 6 Xposition Yposition Zposition Zrotation Xrotation Yrotation
              JOINT LeftHand
              {
                OFFSET 18.4982 0 0
                CHANNELS 6 Xposition Yposition Zposition Zrotation Xrotation Yrotation
                JOINT LeftFingerBase
                {
                  OFFSET 0 0 0
                  CHANNELS 6 Xposition Yposition Zposition Zrotation Xrotation Yrotation
                  JOINT LeftHandIndex1
                  {
                    OFFSET 3.07298 0.000112888 0.000507996
                    CHANNELS 6 Xposition Yposition Zposition Zrotation Xrotation Yrotation
                    End Site
                    {
                      OFFSET 2.47738 0 0
                    }
                  }
                }
                JOINT LThumb
                {
                  OFFSET 0 0 0
                  CHANNELS 6 Xposition Yposition Zposition Zrotation Xrotation Yrotation
                  End Site
                  {
                    OFFSET 2.51537 0.000112888 2.51571
                  }
                }
              }
            }
          }
        }
        JOINT RightShoulder
        {
          OFFSET 0 0 0
          CHANNELS 6 Xposition Yposition Zposition Zrotation Xrotation Yrotation
          JOINT RightArm
          {
            OFFSET -18.4669 5.52384 -2.03938
            CHANNELS 6 Xposition Yposition Zposition Zrotation Xrotation Yrotation
            JOINT RightForeArm
            {
              OFFSET -31.1614 -0.0178927 -0.033302
              CHANNELS 6 Xposition Yposition Zposition Zrotation Xrotation Yrotation
              JOINT RightHand
              {
                OFFSET -18.76 0 0
                CHANNELS 6 Xposition Yposition Zposition Zrotation Xrotation Yrotation
                JOINT RightFingerBase
                {
                  OFFSET 0 0 0
                  CHANNELS 6 Xposition Yposition Zposition Zrotation Xrotation Yrotation
                  JOINT RightHandIndex1
                  {
                    OFFSET -4.133 0 0
                    CHANNELS 6 Xposition Yposition Zposition Zrotation Xrotation Yrotation
                    End Site
                    {
                      OFFSET -3.33217 0 0
                    }
                  }
                }
                JOINT RThumb
                {
                  OFFSET 0 0 0
                  CHANNELS 6 Xposition Yposition Zposition Zrotation Xrotation Yrotation
                  End Site
                  {
                    OFFSET -3.38303 0 3.38303
                  }
                }
              }
            }
          }
        }
      }
    }
  }
}
MOTION
Frames: 8
Frame Time:	0.00833333
89.9949 113.117 58.231 1.82729 7.03713 -4.74623 0 0 0 9.93923e-17 -1.59028e-15 7.95139e-16 9.46628 -9.93132 3.97552 -26.7951 -4.49689 -4.88307 13.8252 -37.9844 0 -0.339446 10.2635 3.77885 14.7484 -40.5208 0 -0.55221 -3.66312 -7.57677 1.00532 -2.7609 10.3019 -0.0337633 -3.26 -1.18792 0 0 0 9.93923e-17 -1.59028e-15 7.95139e-16 -9.13636 -9.93127 3.97552 19.5193 -44.4945 7.92407 -13.3345 -36.6362 0 93.2479 68.1459 -114.837 -14.9202 -40.993 5.01323e-15 0.975735 -7.95761 7.97448 -1.02553 -2.81853 10.7352 0.71768 -14.8039 5.51987 0 0 0 -3.0935 8.48319 1.0147 -0.108711 12.3982 -0.711138 -0.729594 0.666394 1.02257 0.0938664 12.4477 -0.00445908 0.828489 -4.10581 0.552919 0 0 0 15.4701 -10.7142 16.6993 0.598532 9.88752 0.802972 -33.3745 26.7361 31.757 -0.558683 9.51172 -2.73268 -7.44455 17.6658 11.9468 0 0 0 -1.98785e-16 -1.59028e-15 3.97569e-16 18.6635 6.60163 -1.74226 -89.728 19.3331 8.53551 30.2139 -2.00529e-14 0 29.0877 -16.1533 -57.3554 18.4982 2.00529e-14 0 -1.89117e-15 -5.4043 -3.19476e-15 0 0 0 8.32404 3.74324 24.0463 3.07298 0.000112888 0.000507996 -7.125 -3.18055e-15 6.36111e-15 0 0 0 -16.6503 -2.48403 53.2459 0 0 0 -1.98785e-16 -1.59028e-15 3.97569e-16 -18.4669 5.52384 -2.03938 95.3626 31.0813 -13.8369 -31.1614 -0.0178927 -0.033302 -25.8881 -11.996 49.134 -18.76 -5.01323e-15 0 4.77083e-15 -5.2808 -0 0 0 0 -13.9753 -6.02422 22.8653 -4.133 5.01323e-15 0 7.125 2.38542e-15 -3.18055e-15 0 0 0 8.58272 6.86915 -6.60482 
89.8216 113.503 59.3046 2.06663 7.21451 -4.47117 0 0 0 -1.98785e-16 0 7.95139e-16 9.46628 -9.93132 3.97552 -26.7231 -2.48324 -3.9343 13.8252 -37.9844 5.01323e-15 -0.155079 6.96328 2.5478 14.7484 -40.5208 -1.00265e-14 -0.303787 -1.23944 -7.59199 1.00532 -2.7609 10.3019 -0.0669202 -4.58465 -1.67245 0 0 0 -1.98785e-16 0 7.95139e-16 -9.13636 -9.93127 3.97552 20.8645 -48.4129 9.20739 -13.3345 -36.6362 0 83.232 69.4302 -104.098 -14.9202 -40.993 5.01323e-15 0.647043 -11.8325 5.30575 -1.02553 -2.81853 10.7352 0.898189 -16.4992 6.18897 0 0 0 -3.15582 8.30421 0.743698 -0.108711 12.3982 -0.711138 -0.708649 1.16492 0.67624 0.0938664 12.4477 -0.00445908 0.941146 -3.47623 0.370181 0 0 0 16.1803 -10.8642 17.0395 0.598532 9.88752 0.802972 -33.5272 26.3548 32.0132 -0.558683 9.51172 -2.73268 -7.55664 17.7534 12.1336 0 0 0 -1.98785e-16 0 3.97569e-16 18.6635 6.60163 -1.74226 -87.9281 19.8622 7.4603 30.2139 -2.00529e-14 -2.00529e-14 28.7779 -15.6959 -56.495 18.4982 0 -1.00265e-14 -1.83212e-15 -4.3483 -3.18974e-15 0 0 0 9.02067 3.97768 23.603 3.07298 0.000112888 0.000507996 -7.125 -4.77083e-15 3.18055e-15 0 0 0 -15.9672 -2.28857 52.945 0 0 0 -1.98785e-16 0 3.97569e-16 -18.4669 5.52384 -2.03938 94.4046 29.9489 -12.479 -31.1614 -0.0178927 -0.033302 -25.3299 -11.3785 47.8185 -18.76 7.51985e-15 0 2.56776e-15 -5.5026 -6.39056e-15 0 0 0 -16.0532 -7.56984 24.5986 -4.133 5.01323e-15 0 7.125 -4.77083e-15 -3.18055e-15 0 0 0 6.49009 5.58438 -4.45599 
89.5439 113.577 60.3578 2.41167 7.45009 -4.3628 0 0 0 3.97569e-16 0 -0 9.46628 -9.93132 3.97552 -26.8822 -1.19783 -3.11598 13.8252 -37.9844 0 -0.0851186 5.16701 1.88607 14.7484 -40.5208 0 -0.056486 0.694948 -6.8202 1.00532 -2.7609 10.3019 -0.074846 -4.8462 -1.76842 0 0 0 3.97569e-16 0 -0 -9.13636 -9.93127 3.97552 23.1561 -51.6801 11.7722 -13.3345 -36.6362 0 67.8074 69.9847 -87.6666 -14.9202 -40.993 0 -0.245191 -14.9226 1.62284 -1.02553 -2.81853 10.7352 0.66622 -14.2793 5.31516 0 0 0 -3.78451 8.87148 0.493504 -0.108711 12.3982 -0.711138 -0.505698 0.93759 0.262635 0.0938664 12.4477 -0.00445908 1.54655 -4.01698 0.186258 0 0 0 15.9959 -10.1757 17.0143 0.598532 9.88752 0.802972 -32.9201 26.4637 31.8209 -0.558683 9.51172 -2.73268 -7.38168 17.4198 12.1526 0 0 0 0 3.18055e-15 -0 18.6635 6.60163 -1.74226 -87.3903 19.5388 7.95713 30.2139 0 0 28.3528 -15.09 -55.3407 18.4982 2.00529e-14 -5.01323e-15 1.40614e-15 -1.6581 -6.36377e-15 0 0 0 8.94014 4.17572 24.8379 3.07298 0.000112888 0.000507996 -7.125 6.36111e-15 -3.18055e-15 0 0 0 -15.908 -2.63016 54.1466 0 0 0 0 3.18055e-15 -0 -18.4669 5.52384 -2.03938 93.9419 28.6463 -12.6402 -31.1614 -0.0178927 -0.033302 -25.2609 -11.3043 47.6582 -18.76 -1.00265e-14 -2.00529e-14 -2.49971e-15 -8.1363 -6.42579e-15 0 0 0 -16.4917 -6.92618 22.1623 -4.133 0 -2.00529e-14 7.125 7.95139e-16 6.36111e-15 0 0 0 6.61742 5.21038 -6.94654 
89.1956 113.949 61.5827 2.23772 7.47632 -4.73222 0 0 0 -2.98177e-16 -1.59028e-15 -0 9.46628 -9.93132 3.97552 -26.3974 0.0906608 -1.6852 13.8252 -37.9844 0 -0.0316219 3.15367 1.14904 14.7484 -40.5208 5.01323e-15 0.14602 2.46281 -6.63566 1.00532 -2.7609 10.3019 -0.0789683 -4.97761 -1.81655 0 0 0 -2.98177e-16 -1.59028e-15 -0 -9.13636 -9.93127 3.97552 26.23 -52.7756 14.9087 -13.3345 -36.6362 0 47.0681 68.1998 -65.5032 -14.9202 -40.993 0 -0.220145 -15.6738 1.90693 -1.02553 -2.81853 10.7352 0.704149 -14.6682 5.46679 0 0 0 -4.15468 8.93909 0.481245 -0.108711 12.3982 -0.711138 -0.145108 1.09349 0.225741 0.0938664 12.4477 -0.00445908 2.13377 -3.89318 0.171897 0 0 0 16.0887 -9.93565 16.8318 0.598532 9.88752 0.802972 -32.7742 27.1318 31.684 -0.558683 9.51172 -2.73268 -7.38604 17.6029 12.0885 0 0 0 -1.98785e-16 4.77083e-15 7.95139e-16 18.6635 6.60163 -1.74226 -86.6166 19.0474 7.5952 30.2139 4.01059e-14 0 27.7177 -14.2285 -53.6686 18.4982 -2.00529e-14 -1.00265e-14 -6.39278e-15 0.2853 6.36119e-15 0 0 0 9.40361 4.25823 24.1488 3.07298 0.000112888 0.000507996 -7.125 0 -3.18055e-15 0 0 0 -15.5014 -2.39211 53.5582 0 0 0 -1.98785e-16 4.77083e-15 7.95139e-16 -18.4669 5.52384 -2.03938 93.138 27.2249 -12.3612 -31.1614 -0.0178927 -0.033302 -24.9322 -10.9548 46.8978 -18.76 -7.51985e-15 0 -3.18055e-15 -10.626 -0 0 0 0 -16.7041 -6.68833 21.2117 -4.133 0 0 7.125 -3.97569e-15 -6.36111e-15 0 0 0 6.62141 5.03425 -7.91322 
88.9117 114.269 62.9424 2.31287 7.55417 -4.73115 0 0 0 9.93923e-17 0 -7.95139e-16 9.46628 -9.93132 3.97552 -26.4317 2.33615 -0.367706 13.8252 -37.9844 5.01323e-15 3.13086e-15 -3.18055e-15 9.93923e-16 14.7484 -40.5208 0 0.398648 4.57836 -6.428 1.00532 -2.7609 10.3019 -0.110249 -5.877 -2.14709 0 0 0 9.93923e-17 0 -7.95139e-16 -9.13636 -9.93127 3.97552 27.6146 -53.1425 16.3692 -13.3345 -36.6362 0 30.814 63.8157 -47.7482 -14.9202 -40.993 0 0.127945 -15.4327 3.24564 -1.02553 -2.81853 10.7352 0.900406 -16.519 6.19681 0 0 0 -4.15839 9.1805 0.382905 -0.108711 12.3982 -0.711138 -0.21975 1.0556 0.0787134 0.0938664 12.4477 -0.00445908 2.07635 -4.05749 0.102457 0 0 0 17.003 -9.85639 16.9158 0.598532 9.88752 0.802972 -32.7053 27.6843 31.778 -0.558683 9.51172 -2.73268 -7.49167 17.9842 12.2002 0 0 0 -1.98785e-16 -1.59028e-15 -0 18.6635 6.60163 -1.74226 -86.1837 18.0662 7.95936 30.2139 0 -1.00265e-14 27.4203 -13.8415 -52.9046 18.4982 -2.00529e-14 0 -3.41517e-15 2.1123 6.36543e-15 0 0 0 8.00172 3.71915 24.771 3.07298 0.000112888 0.000507996 -7.125 0 -3.18055e-15 0 0 0 -16.909 -2.7259 53.8916 0 0 0 -1.98785e-16 -1.59028e-15 -0 -18.4669 5.52384 -2.03938 93.0904 25.5305 -12.4816 -31.1614 -0.0178927 -0.033302 -24.6886 -10.7017 46.3405 -18.76 5.01323e-15 -2.00529e-14 2.41635e-15 -13.5106 -3.27108e-15 0 0 0 -16.9229 -6.50342 20.4181 -4.133 5.01323e-15 0 7.125 -3.97569e-16 -3.18055e-15 0 0 0 6.58456 4.86139 -8.71489 
88.4686 114.258 64.3879 2.45961 7.47318 -4.68982 0 0 0 -1.98785e-16 0 7.95139e-16 9.46628 -9.93132 3.97552 -26.4642 1.9032 -0.03622 13.8252 -37.9844 -5.01323e-15 -0.0186692 2.42161 0.881988 14.7484 -40.5208 0 0.205873 2.93475 -7.28641 1.00532 -2.7609 10.3019 -0.698353 -14.6098 -5.44403 0 0 0 -1.98785e-16 0 7.95139e-16 -9.13636 -9.93127 3.97552 28.5489 -52.5892 17.2502 -13.3345 -36.6362 -2.00529e-14 21.0406 58.6073 -36.6161 -14.9202 -40.993 -2.00529e-14 -0.281963 -16.3743 1.83276 -1.02553 -2.81853 10.7352 0.788822 -15.4978 5.79229 0 0 0 -4.62438 9.02971 0.254757 -0.108711 12.3982 -0.711138 -0.163841 1.3785 -0.118834 0.0938664 12.4477 -0.00445908 2.42064 -3.6222 -0.002505 0 0 0 16.9685 -10.035 16.9678 0.598532 9.88752 0.802972 -31.9942 27.6338 31.4922 -0.558683 9.51172 -2.73268 -7.22095 17.7405 12.1202 0 0 0 -2.20695e-32 1.59028e-15 7.95139e-16 18.6635 6.60163 -1.74226 -85.7273 17.4419 7.50544 30.2139 -2.00529e-14 -1.00265e-14 26.9338 -13.2298 -51.6792 18.4982 0 5.01323e-15 -3.18055e-15 2.2528 -0 0 0 0 8.74807 4.22826 25.6007 3.07298 0.000112888 0.000507996 -7.125 0 3.18055e-15 0 0 0 -16.0169 -2.85988 54.8598 0 0 0 -2.20695e-32 1.59028e-15 7.95139e-16 -18.4669 5.52384 -2.03938 92.7468 24.6268 -12.5919 -31.1614 -0.0178927 -0.033302 -24.5879 -10.5985 46.1113 -18.76 -2.50662e-15 -2.00529e-14 -0 -15.483 -0 0 0 0 -17.4023 -6.53581 19.9592 -4.133 -5.01323e-15 0 7.125 -1.19271e-15 -0 0 0 0 6.26212 4.55138 -9.12713 
88.0408 114.573 66.1253 3.07058 7.52662 -4.18381 0 0 0 -1.98785e-16 -1.59028e-15 -0 9.46628 -9.93132 3.97552 -26.8317 3.8935 0.581642 13.8252 -37.9844 -1.00265e-14 -3.12465e-15 3.18055e-15 -5.46658e-16 14.7484 -40.5208 -5.01323e-15 0.301448 3.74627 -6.68014 1.00532 -2.7609 10.3019 -0.554018 -13.0523 -4.84034 0 0 0 -1.98785e-16 -1.59028e-15 -0 -9.13636 -9.93127 3.97552 27.4517 -51.7638 16.4689 -13.3345 -36.6362 2.00529e-14 14.7297 53.1054 -29.0031 -14.9202 -40.993 0 -0.414129 -16.0998 1.24525 -1.02553 -2.81853 10.7352 0.675354 -14.3738 5.352 0 0 0 -5.22241 8.49098 0.130126 -0.108711 12.3982 -0.711138 -0.279254 1.57838 -0.306616 0.0938664 12.4477 -0.00445908 2.6557 -3.09679 -0.105454 0 0 0 16.3766 -10.8695 16.5864 0.598532 9.88752 0.802972 -30.7589 28.5975 30.7348 -0.558683 9.51172 -2.73268 -6.65375 17.7527 11.6832 0 0 0 3.97569e-16 1.59028e-15 -0 18.6635 6.60163 -1.74226 -85.6827 17.4094 7.61999 30.2139 -2.00529e-14 0 26.6098 -12.836 -50.878 18.4982 4.01059e-14 5.01323e-15 7.95139e-15 1.5586 -0 0 0 0 8.94041 4.28183 25.3888 3.07298 0.000112888 0.000507996 -7.125 0 3.18055e-15 0 0 0 -15.8394 -2.77695 54.6905 0 0 0 3.97569e-16 1.59028e-15 -0 -18.4669 5.52384 -2.03938 92.5474 23.2701 -12.8941 -31.1614 -0.0178927 -0.033302 -24.477 -10.4856 45.8598 -18.76 -1.25331e-14 0 -3.36798e-16 -16.854 -6.6466e-15 0 0 0 -18.1556 -6.46588 18.9528 -4.133 0 -2.00529e-14 7.125 -3.18055e-15 9.54166e-15 0 0 0 5.79826 4.06518 -10.0806 
87.6146 114.529 67.673 3.60933 7.58739 -3.30699 0 0 0 -3.97569e-16 0 -3.97569e-16 9.46628 -9.93132 3.97552 -27.128 4.78987 0.424081 13.8252 -37.9844 5.01323e-15 -3.85145e-15 -1.59028e-15 -7.95139e-16 14.7484 -40.5208 -5.01323e-15 0.434971 4.67781 -7.11071 1.00532 -2.7609 10.3019 -0.482514 -12.1989 -4.51301 0 0 0 -3.97569e-16 0 -3.97569e-16 -9.13636 -9.93127 3.97552 26.088 -50.7622 15.7178 -13.3345 -36.6362 2.00529e-14 11.0233 48.4235 -24.2229 -14.9202 -40.993 0 -0.124051 -15.2138 2.19299 -1.02553 -2.81853 10.7352 0.646415 -14.0704 5.23405 0 0 0 -5.651 9.0058 -0.0478904 -0.108711 12.3982 -0.711138 -0.324615 1.18853 -0.630836 0.0938664 12.4477 -0.00445908 2.89304 -3.75827 -0.235807 0 0 0 16.8218 -10.3731 16.527 0.598532 9.88752 0.802972 -30.9795 29.2635 30.9246 -0.558683 9.51172 -2.73268 -6.81874 18.1112 11.7982 0 0 0 1.98785e-16 1.59028e-15 -7.95139e-16 18.6635 6.60163 -1.74226 -86.2686 17.3888 8.44885 30.2139 0 0 26.2452 -12.4055 -49.9904 18.4982 0 1.00265e-14 1.63402e-15 0.788 -3.18086e-15 0 0 0 9.42616 4.59731 25.7707 3.07298 0.000112888 0.000507996 -7.125 0 -1.59028e-15 0 0 0 -15.273 -2.80778 55.1702 0 0 0 1.98785e-16 1.59028e-15 -7.95139e-16 -18.4669 5.52384 -2.03938 92.701 22.3798 -14.245 -31.1614 -0.0178927 -0.033302 -24.5315 -10.5409 45.9831 -18.76 0 0 5.02404e-16 -18.2102 6.69649e-15 0 0 0 -18.5337 -6.14243 17.7015 -4.133 -1.00265e-14 0 7.125 0 -6.36111e-15 0 0 0 5.68258 3.79733 -11.3538 
